<svg xmlns="http://www.w3.org/2000/svg" viewBox="0 0 160 50">
  <circle cx="25" cy="25" r="25" fill="#2CA01C"/>
  <path fill="white" d="M25 8A17 17 0 1 0 25 42 17 17 0 0 0 25 8zm.9 5.3c1.4 0 2.5 1.1 2.5 2.5v13.1h2.3c2.3 0 4.2-1.9 4.2-4.2s-1.9-4.2-4.2-4.2h-1V19h1c3.7 0 6.7 3 6.7 6.7s-3 6.7-6.7 6.7H25.9zm-6 4.2h4.8v18.1c-1.4 0-2.5-1.1-2.5-2.5V20H19.9c-2.3 0-4.2 1.9-4.2 4.2s1.9 4.2 4.2 4.2h1v2.5h-1c-3.7 0-6.7-3-6.7-6.7s3-6.7 6.7-6.7z"/>
  <text x="58" y="17" font-size="10" font-weight="400" font-family="Arial,sans-serif" fill="#6B675C">intuit</text>
  <text x="58" y="36" font-size="18" font-weight="800" font-family="'Helvetica Neue',Arial,sans-serif" fill="#2CA01C">QuickBooks</text>
</svg>
