<svg xmlns="http://www.w3.org/2000/svg" viewBox="0 0 108 24">
  <!-- Slack icon -->
  <path fill="#E01E5A" d="M5.042 15.165a2.528 2.528 0 01-2.52 2.523A2.528 2.528 0 010 15.165a2.527 2.527 0 012.522-2.52h2.52v2.52zm1.271 0a2.527 2.527 0 012.521-2.52 2.527 2.527 0 012.521 2.52v6.313A2.528 2.528 0 018.834 24a2.528 2.528 0 01-2.521-2.522v-6.313z"/>
  <path fill="#E01E5A" d="M8.834 5.042a2.528 2.528 0 01-2.521-2.52A2.528 2.528 0 018.834 0a2.527 2.527 0 012.521 2.522v2.52H8.834zm0 1.271a2.527 2.527 0 012.521 2.521 2.527 2.527 0 01-2.521 2.521H2.522A2.528 2.528 0 010 8.834a2.528 2.528 0 012.522-2.521h6.312z"/>
  <path fill="#36C5F0" d="M18.956 8.834a2.528 2.528 0 012.522-2.521A2.528 2.528 0 0124 8.834a2.527 2.527 0 01-2.522 2.521h-2.522V8.834zm-1.268 0a2.527 2.527 0 01-2.523 2.521 2.526 2.526 0 01-2.52-2.521V2.522A2.527 2.527 0 0115.165 0a2.528 2.528 0 012.523 2.522v6.312z"/>
  <path fill="#36C5F0" d="M15.165 18.956a2.528 2.528 0 012.523 2.522A2.528 2.528 0 0115.165 24a2.527 2.527 0 01-2.52-2.522v-2.522h2.52zm0-1.268a2.527 2.527 0 01-2.52-2.523 2.526 2.526 0 012.52-2.52h6.313A2.527 2.527 0 0124 15.165a2.528 2.528 0 01-2.522 2.523h-6.313z"/>
  <path fill="#2EB67D" d="M5.042 18.956H2.522A2.528 2.528 0 010 16.434a2.527 2.527 0 012.522-2.52 2.527 2.527 0 012.52 2.52v2.522zm1.271-1.268a2.527 2.527 0 012.521-2.523 2.527 2.527 0 012.521 2.523v6.29A2.528 2.528 0 018.834 24a2.528 2.528 0 01-2.521-2.5v-3.812z"/>
  <path fill="#2EB67D" d="M8.834 5.042V2.522A2.528 2.528 0 0111.356 0a2.527 2.527 0 012.52 2.522 2.527 2.527 0 01-2.52 2.52H8.834zm1.27 1.271a2.527 2.527 0 012.523-2.521 2.526 2.526 0 012.52 2.521v6.312a2.527 2.527 0 01-2.52 2.521 2.528 2.528 0 01-2.523-2.521V6.313z"/>
  <path fill="#ECB22E" d="M18.956 5.042a2.528 2.528 0 01-2.522-2.52A2.528 2.528 0 0118.956 0a2.527 2.527 0 012.522 2.522v2.52h-2.522zm-1.268 1.271a2.527 2.527 0 01-2.523 2.521 2.526 2.526 0 01-2.52-2.521V.522A2.527 2.527 0 0115.165 0a2.528 2.528 0 012.523 2.522v3.791z"/>
  <path fill="#ECB22E" d="M18.956 18.956v2.522A2.528 2.528 0 0116.434 24a2.527 2.527 0 01-2.52-2.522 2.527 2.527 0 012.52-2.522h2.522zm-1.268-1.268a2.527 2.527 0 01-2.523-2.523 2.526 2.526 0 012.523-2.52h6.29A2.527 2.527 0 0124 15.165a2.528 2.528 0 01-2.5 2.523h-3.812z"/>
  <!-- Slack wordmark -->
  <text x="31" y="18" font-size="16" font-weight="700" font-family="'Helvetica Neue',Arial,sans-serif" fill="#1D1C1D">Slack</text>
</svg>
