<svg xmlns="http://www.w3.org/2000/svg" viewBox="0 0 280 90">
  <g transform="scale(0.7087)">
    <path fill="#E01E5A" d="M27.2 80c0 7.3-5.9 13.2-13.2 13.2C6.7 93.2.8 87.3.8 80c0-7.3 5.9-13.2 13.2-13.2h13.2V80zm6.6 0c0-7.3 5.9-13.2 13.2-13.2 7.3 0 13.2 5.9 13.2 13.2v33c0 7.3-5.9 13.2-13.2 13.2-7.3 0-13.2-5.9-13.2-13.2V80z"/>
    <path fill="#36C5F0" d="M47 27.2c-7.3 0-13.2-5.9-13.2-13.2C33.8 6.7 39.7.8 47 .8c7.3 0 13.2 5.9 13.2 13.2V27.2H47zm0 6.6c7.3 0 13.2 5.9 13.2 13.2 0 7.3-5.9 13.2-13.2 13.2H14c-7.3 0-13.2-5.9-13.2-13.2 0-7.3 5.9-13.2 13.2-13.2H47z"/>
    <path fill="#2EB67D" d="M99.8 47c0-7.3 5.9-13.2 13.2-13.2 7.3 0 13.2 5.9 13.2 13.2 0 7.3-5.9 13.2-13.2 13.2H99.8V47zm-6.6 0c0 7.3-5.9 13.2-13.2 13.2-7.3 0-13.2-5.9-13.2-13.2V14c0-7.3 5.9-13.2 13.2-13.2 7.3 0 13.2 5.9 13.2 13.2V47z"/>
    <path fill="#ECB22E" d="M80 99.8c7.3 0 13.2 5.9 13.2 13.2 0 7.3-5.9 13.2-13.2 13.2-7.3 0-13.2-5.9-13.2-13.2V99.8H80zm0-6.6c-7.3 0-13.2-5.9-13.2-13.2 0-7.3 5.9-13.2 13.2-13.2h33c7.3 0 13.2 5.9 13.2 13.2 0 7.3-5.9 13.2-13.2 13.2H80z"/>
  </g>
  <text x="103" y="62" font-size="50" font-weight="700" font-family="'Helvetica Neue',Arial,sans-serif" fill="#1D1C1D">Slack</text>
</svg>
